<svg xmlns="http://www.w3.org/2000/svg" viewBox="0 0 100 100">
  <path d="M79.516 37.113v16.992c4.594-.137 8.246-3.898 8.246-8.496s-3.652-8.363-8.246-8.496m0 25.512h.316-.003c.464.012.878-.285 1.015-.73l.168-.528.031-.105.016-.051a3.26 3.26 0 0 1 2.203-2.137 14.2 14.2 0 0 0 2.719-1.125h.004a3.24 3.24 0 0 1 3.062-.043l.645.328c.199.102.425.141.648.114.223-.04.426-.145.582-.309l.332-.332c.024-.023.04-.043.059-.062l.398-.391v-.004c.16-.156.266-.36.301-.582a1 1 0 0 0-.113-.64l-.328-.645a3.27 3.27 0 0 1 .046-3.07q.352-.653.633-1.332c.188-.457.348-.918.489-1.391a3.24 3.24 0 0 1 2.14-2.195l.153-.051.535-.176a1.024 1.024 0 0 0 .726-1h-.004v-1.117h.004a1.04 1.04 0 0 0-.187-.629 1.04 1.04 0 0 0-.528-.383l-.687-.223c-.512-.164-.973-.449-1.348-.832s-.644-.851-.789-1.367a17 17 0 0 0-.492-1.386 14 14 0 0 0-.633-1.332 3.26 3.26 0 0 1-.047-3.067l.328-.644a1 1 0 0 0 .11-.645 1.04 1.04 0 0 0-.301-.578l-.398-.398-.391-.399v.004a1.04 1.04 0 0 0-1.227-.191l-.644.328a3.26 3.26 0 0 1-3.067-.047 16 16 0 0 0-1.332-.633 15 15 0 0 0-1.386-.484 3.3 3.3 0 0 1-1.367-.793A3.2 3.2 0 0 1 81.075 30l-.223-.687a1.04 1.04 0 0 0-1.004-.727h-.316v6.285c5.93 0 10.734 4.805 10.734 10.734S85.46 56.343 79.532 56.343zm-6.29 13.445h.458a3.593 3.593 0 0 0 3.578-3.578V18.226a3.595 3.595 0 0 0-3.578-3.578H29.98a3.61 3.61 0 0 0-3.59 3.578v.457h32.996c.297 0 .578.117.79.324l12.66 10.805c.25.215.39.524.39.852zM69.08 29.543l-8.567-7.313v7.313zM41.1 61.684h22.01v2.242H41.099zm0 5.828h22.01v2.234H41.099zm.011 5.828h10.441v2.238h-10.44zm13.156 0h3.059l.004 2.238h-3.063zm5.774 0h3.058l.004 2.238H60.04zM38.892 49.32l.004-.004a1.13 1.13 0 0 1-.817-.316c-.215-.211-.34-.5-.34-.8 0-.306.125-.595.34-.806.219-.21.512-.324.817-.316h.585v-.316l-2.296-2.372h-.004a1 1 0 0 1-.07-.074c-4.387-4.62-4.278-11.898.25-16.383a1 1 0 0 1 .132-.129c4.637-4.402 11.95-4.27 16.422.301h.004l.07.082c4.407 4.645 4.266 11.97-.316 16.441l-2.324 2.254v.191h.59c.3-.011.593.106.812.317s.34.5.34.8c0 .305-.121.594-.34.805s-.512.325-.812.317h-.586l-.004 2.476-.004.02a5.937 5.937 0 0 1-11.871 0v-2.492zm10.012 3.578-6.973-.004a3.696 3.696 0 0 0 6.973 0zm-7.188-2.238h7.395l.004-1.344H41.72zm4.883-3.578.008-7.832H44.5v7.828zm-5.367-7.828.004-.004a1.119 1.119 0 0 1-.812-1.922c.218-.21.51-.324.812-.316h8.375c.3-.008.593.105.812.316s.34.5.34.805a1.12 1.12 0 0 1-1.152 1.117h-.766v7.828h.266l-.004-.656c0-.305.12-.594.34-.805l2.668-2.59a9.456 9.456 0 0 0 .253-13.293l-.042-.043h.003l-.011-.011.004.003c-3.618-3.707-9.543-3.824-13.301-.261l-.036.043h-.003l-.012.011a9.475 9.475 0 0 0-.258 13.293l.043.043 2.59 2.66c.238.215.375.524.375.844v.762h.539V39.25zM28.505 69.762h-5.121v15.594h5.12zm-7.36-4.309-5.125.004v19.895h5.125zm-7.367 19.895-.004-12.32H8.657v12.328zm16.965-16.707v16.715h5.121V62.012h-5.12zm7.363 13.707h29.301a3.593 3.593 0 0 0 3.579-3.578V31.79H59.388a1.124 1.124 0 0 1-1.122-1.121v-9.746H23.692a3.593 3.593 0 0 0-3.578 3.578V63.22h2.149c.62 0 1.12.5 1.12 1.121v3.18h5.122v-6.633h.004a1.124 1.124 0 0 1 1.117-1.121h7.367a1.12 1.12 0 0 1 1.114 1.121zM3.711 52.47c0-.015 0-.031-.011-.047m5.086 5.27 2.175-4.348H6.614zm2.867-36.844v-2.75a2.78 2.78 0 0 0-2.762-2.766h-.21a2.767 2.767 0 0 0-2.763 2.766v2.758h5.731zm-3.985 30.25v-28H5.922v28zm2.239-28v28h1.746v-28z"/>
</svg>
